<svg width="26" height="25" viewBox="0 0 26 25" fill="none" xmlns="http://www.w3.org/2000/svg">
<path d="M26 12.6117C25.9801 12.7573 25.9557 12.9025 25.9405 13.049C25.8596 13.8303 25.3289 14.3444 24.5897 14.3543C23.761 14.3656 23.1266 13.7544 23.2365 12.9529C23.5173 10.9045 22.8091 9.1172 21.5942 7.46983C20.3035 5.71974 18.6557 4.32117 16.5978 3.36696C15.3616 2.79396 14.0561 2.47542 12.6606 2.5461C12.4078 2.55882 12.1549 2.59511 11.9021 2.59369C11.1563 2.58898 10.6333 2.16065 10.5514 1.50424C10.471 0.85915 10.8836 0.305 11.5994 0.15374C12.3315 -0.000818612 13.0793 0.0057784 13.8216 0.0755183C16.7393 0.349294 19.1802 1.56644 21.3139 3.37073C22.8091 4.635 24.0433 6.0854 24.9036 7.79356C25.4653 8.90939 25.8326 10.0757 25.9537 11.3051C25.9613 11.3809 25.9847 11.4554 26.0005 11.5303V12.6122L26 12.6117Z" fill="#F39D22"/>
<path d="M19.1171 24.038C17.9084 24.0337 16.7611 23.7444 15.6455 23.3434C13.004 22.3939 10.6954 20.9468 8.56625 19.2387C6.15377 17.3029 4.04604 15.1193 2.3748 12.5922C1.39394 11.1107 0.589613 9.55423 0.190756 7.84278C0.0116769 7.07328 -0.0951599 6.29248 0.118514 5.51545C0.196352 5.23319 0.299627 4.917 0.503126 4.7125C1.12074 4.0919 1.74854 3.46707 2.45417 2.9379C3.49863 2.15474 4.49424 2.15568 5.55294 2.93554C6.64726 3.74132 7.46278 4.76998 7.98272 5.98148C8.35665 6.85276 8.13076 7.62508 7.47194 8.30504C7.19518 8.5906 6.91537 8.87615 6.61165 9.13579C6.2077 9.4812 6.0856 9.90105 6.27943 10.3506C6.49056 10.8407 6.73527 11.3317 7.05476 11.7656C8.19079 13.3098 9.62648 14.609 11.0937 15.877C11.9296 16.5994 12.7975 17.2916 13.7911 17.8217C14.2016 18.0408 14.6646 18.1883 15.1204 18.3179C15.503 18.4263 15.8495 18.2948 16.1349 18.0286C16.4386 17.7449 16.7469 17.4655 17.0613 17.1917C17.829 16.524 18.7117 16.3086 19.6986 16.6969C21.0356 17.2233 22.1915 17.9895 23.0594 19.0813C23.6821 19.8649 23.704 20.7319 23.1067 21.5321C22.7725 21.9797 22.3528 22.3727 21.9595 22.7813C21.7687 22.9796 21.5423 23.1488 21.3475 23.3444C20.8744 23.8193 20.2639 23.9885 19.5974 24.037C19.4377 24.0488 19.2764 24.0389 19.1156 24.0389L19.1171 24.038Z" fill="#F39D22"/>
<path d="M13.3754 4.65771C13.7061 4.73452 14.2332 4.81981 14.7328 4.97956C17.6627 5.91822 19.6422 7.75313 20.6602 10.4645C20.8174 10.8834 20.9156 11.3249 20.9985 11.7632C21.1191 12.4045 20.6561 13.0284 19.9902 13.1726C19.2733 13.3281 18.5901 12.9728 18.38 12.3178C18.2406 11.8833 18.18 11.4225 17.9979 11.0055C17.1168 8.98818 15.5539 7.68716 13.235 7.20275C12.9496 7.14291 12.651 7.07646 12.4007 6.94452C11.8716 6.66556 11.6615 6.0888 11.8345 5.537C12.0049 4.99322 12.5065 4.66573 13.3754 4.65771V4.65771Z" fill="#F39D22"/>
</svg>
