<svg width="20" height="29" viewBox="0 0 20 29" fill="none" xmlns="http://www.w3.org/2000/svg">
<path d="M9.44912 0.295898C9.82419 0.295898 10.1993 0.295898 10.5738 0.295898C10.8603 0.332421 11.1468 0.366763 11.4333 0.405466C12.9911 0.615879 14.4181 1.15936 15.7029 2.03045C17.5162 3.25968 18.7943 4.89283 19.488 6.92774C20.0346 8.53091 20.1953 10.1619 19.7136 11.8185C19.2579 13.3857 18.5952 14.8717 17.8349 16.3168C15.6787 20.4127 13.0611 24.2296 10.2805 27.9467C10.0763 28.2198 9.94771 28.2204 9.7441 27.9489C6.9573 24.2247 4.33519 20.3996 2.17614 16.295C1.41585 14.8499 0.736772 13.3672 0.309248 11.7929C0.163168 11.2538 0.100562 10.6934 -0.000396729 10.1428C-0.000396729 10.0158 -0.000396729 9.88879 -0.000396729 9.76178C0.0650291 9.23356 0.0999981 8.70044 0.200393 8.17823C0.577155 6.21746 1.50891 4.52706 2.96463 3.12176C4.24946 1.88327 5.77343 1.02144 7.54783 0.614789C8.17276 0.47197 8.81461 0.400015 9.44912 0.295898ZM10.0137 13.4195C11.9872 13.4178 13.5946 11.8637 13.5913 9.9602C13.5884 8.05776 11.9737 6.49819 10.0081 6.50037C8.04247 6.502 6.42656 8.06702 6.42882 9.96565C6.43164 11.8708 8.04078 13.4217 10.0137 13.42V13.4195Z" fill="#F39D22"/>
</svg>
