<svg width="22" height="22" viewBox="0 0 22 22" fill="none" xmlns="http://www.w3.org/2000/svg">
<path d="M0 20.0027C0 14.3294 0 8.65615 0 2.98246C0.022387 2.91728 0.0456351 2.85209 0.0671611 2.78649C0.251854 2.22126 0.722843 1.83562 1.33203 1.81879C2.14011 1.79692 2.94949 1.81501 3.75801 1.81669C3.76877 1.81669 3.77953 1.83141 3.80752 1.85202C3.80752 1.9151 3.80752 1.9908 3.80752 2.06692C3.80752 2.71667 3.79245 3.36685 3.81484 4.01534C3.82431 4.28071 3.86521 4.56669 3.9793 4.80304C4.29228 5.45069 4.86488 5.68368 5.57911 5.6719C6.59858 5.6555 7.25727 5.02383 7.26029 4.02922C7.26201 3.36559 7.26029 2.70196 7.26029 2.03832C7.26029 1.96473 7.26029 1.89155 7.26029 1.82468H14.9012C14.9059 1.85496 14.9102 1.86884 14.9102 1.88272C14.9111 2.60228 14.9072 3.32185 14.9132 4.041C14.9188 4.71641 15.2176 5.2278 15.8535 5.51336C16.2917 5.71017 16.7644 5.69167 17.2242 5.60125C17.9919 5.45027 18.3621 4.99734 18.3673 4.23277C18.3724 3.50647 18.3686 2.77976 18.3686 2.05346C18.3686 1.97818 18.3686 1.9029 18.3686 1.82048C18.44 1.81543 18.4887 1.8087 18.5373 1.8087C19.2033 1.80786 19.8689 1.80407 20.5349 1.80954C21.396 1.81669 21.9978 2.39705 21.9983 3.23606C22.0013 8.73311 22.0017 14.2306 21.9935 19.7276C21.9935 19.9442 21.9423 20.1785 21.8472 20.3732C21.5708 20.938 21.0744 21.1567 20.4471 21.1546C18.772 21.1491 17.0964 21.1525 15.4212 21.1525C10.8177 21.1525 6.21413 21.155 1.61058 21.1462C1.33246 21.1458 1.03755 21.0932 0.780533 20.9931C0.335806 20.8202 0.130017 20.4312 0 20.0027ZM20.5767 7.26412H1.42416V19.7731H20.5767V7.26412Z" fill="#F39D22"/>
<path d="M6.55896 2.54673C6.55896 3.06359 6.568 3.58046 6.55595 4.0969C6.54389 4.61502 6.22574 4.9401 5.71686 4.98468C5.07237 5.04104 4.65219 4.80973 4.53724 4.3282C4.51485 4.23442 4.51184 4.13475 4.51184 4.0376C4.51012 3.0392 4.51485 2.04081 4.50882 1.04241C4.50624 0.641207 4.64444 0.30939 5.04009 0.171448C5.462 0.0242546 5.9007 0.0091147 6.27568 0.321165C6.49955 0.507471 6.55939 0.764008 6.55939 1.03947C6.55939 1.54203 6.55939 2.04501 6.55939 2.54758L6.55896 2.54673Z" fill="#F39D22"/>
<path d="M17.6629 2.53239C17.6629 3.0421 17.6655 3.55181 17.6621 4.06152C17.6582 4.61035 17.3142 4.95226 16.755 4.9573C16.578 4.95898 16.3929 4.95898 16.225 4.91272C15.8849 4.81936 15.689 4.58091 15.6352 4.23942C15.6201 4.14353 15.6167 4.0447 15.6167 3.94713C15.6154 2.99079 15.6145 2.03403 15.6167 1.0777C15.618 0.221028 16.4411 -0.24116 17.2178 0.181075C17.5097 0.340045 17.6591 0.592797 17.6612 0.919567C17.6647 1.45703 17.6621 1.99492 17.6621 2.53239H17.6629V2.53239Z" fill="#F39D22"/>
<path d="M4.73917 18.4471C4.35256 18.4471 3.96638 18.4429 3.57978 18.4488C3.38217 18.4517 3.29305 18.3773 3.2952 18.1771C3.30123 17.521 3.30037 16.8645 3.29563 16.2085C3.29434 16.0319 3.37098 15.9507 3.55007 15.9507C4.34438 15.9515 5.13869 15.9515 5.933 15.9507C6.11167 15.9507 6.18873 16.0348 6.18744 16.2106C6.18356 16.8667 6.18227 17.5231 6.18744 18.1792C6.18916 18.3815 6.09186 18.4509 5.8977 18.4479C5.51152 18.4429 5.12491 18.4462 4.73831 18.4462L4.73917 18.4471Z" fill="#F39D22"/>
<path d="M8.85148 18.447C8.46487 18.447 8.07869 18.4441 7.69209 18.4483C7.50352 18.4504 7.42043 18.3743 7.42172 18.1854C7.42689 17.5294 7.42732 16.8729 7.42172 16.2168C7.42 16.0284 7.50007 15.9498 7.68864 15.9502C8.47563 15.9523 9.26305 15.9519 10.05 15.9506C10.2408 15.9506 10.3152 16.0398 10.314 16.2236C10.3088 16.8729 10.3084 17.5222 10.314 18.1716C10.3157 18.368 10.2317 18.4512 10.0324 18.4487C9.6389 18.4437 9.2454 18.4474 8.85148 18.4474V18.447Z" fill="#F39D22"/>
<path d="M12.9789 18.4469C12.5923 18.4469 12.2061 18.444 11.8195 18.4482C11.6322 18.4503 11.5453 18.3771 11.5466 18.187C11.5513 17.5238 11.5509 16.8606 11.547 16.1974C11.5461 16.0296 11.6228 15.9514 11.7907 15.9514C12.5923 15.9514 13.3935 15.9509 14.1951 15.9514C14.3626 15.9514 14.4384 16.0342 14.4375 16.2003C14.4341 16.8635 14.4336 17.5268 14.4375 18.19C14.4388 18.3826 14.3423 18.449 14.1589 18.4473C13.7655 18.4436 13.372 18.4461 12.978 18.4461L12.9789 18.4469Z" fill="#F39D22"/>
<path d="M17.1162 18.4469C16.7296 18.4469 16.3434 18.4427 15.9568 18.4486C15.76 18.4515 15.6705 18.3792 15.6727 18.1777C15.6795 17.5284 15.6795 16.8791 15.6727 16.2297C15.6705 16.0338 15.7463 15.9484 15.9478 15.9492C16.7279 15.9526 17.508 15.9522 18.2876 15.9492C18.4878 15.9484 18.567 16.035 18.5649 16.2306C18.5584 16.8728 18.5632 17.5154 18.5619 18.1576C18.5614 18.3977 18.5102 18.4452 18.254 18.4461C17.8748 18.4477 17.4955 18.4461 17.1162 18.4461V18.4469Z" fill="#F39D22"/>
<path d="M13.0116 8.96322C13.3978 8.96322 13.7844 8.96659 14.1706 8.96196C14.3613 8.95944 14.4401 9.03893 14.4388 9.22649C14.4336 9.88256 14.434 10.5386 14.4388 11.1947C14.4401 11.3852 14.3509 11.4537 14.1637 11.4529C13.384 11.4487 12.6039 11.4479 11.8242 11.4533C11.6193 11.455 11.5453 11.3713 11.547 11.1766C11.553 10.5277 11.5534 9.87835 11.547 9.22944C11.5448 9.02673 11.6357 8.95818 11.832 8.96154C12.2255 8.96827 12.619 8.96365 13.0125 8.96365L13.0116 8.96322Z" fill="#F39D22"/>
<path d="M17.136 8.96316C17.5222 8.96316 17.9088 8.96652 18.2949 8.96189C18.4848 8.95937 18.5657 9.03717 18.5644 9.22516C18.5593 9.88122 18.5597 10.5373 18.5644 11.1934C18.5657 11.383 18.4783 11.4533 18.2902 11.4524C17.5105 11.4482 16.7304 11.4474 15.9508 11.4528C15.7467 11.4545 15.6714 11.3729 15.6735 11.1774C15.68 10.5285 15.6804 9.87912 15.6735 9.23021C15.6714 9.0275 15.7596 8.95769 15.9568 8.96105C16.3503 8.96778 16.7438 8.96316 17.1373 8.96316H17.136Z" fill="#F39D22"/>
<path d="M4.72797 14.9448C4.34868 14.9448 3.96982 14.9465 3.59053 14.9444C3.33696 14.9427 3.29864 14.9074 3.29821 14.6677C3.29606 14.0255 3.29649 13.3833 3.29821 12.7416C3.29907 12.4981 3.33954 12.4585 3.58408 12.4581C4.35686 12.4568 5.12921 12.4606 5.90199 12.4556C6.10046 12.4543 6.19001 12.525 6.18829 12.7252C6.18269 13.3741 6.18226 14.0234 6.18829 14.6723C6.19044 14.87 6.10908 14.9503 5.90802 14.9469C5.51453 14.9406 5.12103 14.9453 4.72754 14.9453L4.72797 14.9448Z" fill="#F39D22"/>
<path d="M8.86786 12.4568C9.25404 12.4568 9.64065 12.4619 10.0268 12.4547C10.2244 12.451 10.3157 12.5233 10.314 12.7239C10.3088 13.38 10.3097 14.036 10.3135 14.6921C10.3144 14.8691 10.2356 14.9457 10.0557 14.9453C9.26179 14.9427 8.46748 14.9427 7.6736 14.9453C7.48934 14.9461 7.42132 14.8633 7.42218 14.6887C7.42691 14.0327 7.42777 13.3766 7.42175 12.7205C7.42002 12.5174 7.51259 12.451 7.7089 12.4547C8.09508 12.4623 8.48126 12.4568 8.86786 12.4568V12.4568Z" fill="#F39D22"/>
<path d="M12.9982 14.9443C12.6048 14.9443 12.2113 14.9405 11.8178 14.946C11.6292 14.9485 11.5448 14.8766 11.5465 14.6861C11.5521 14.03 11.5517 13.3739 11.5465 12.7179C11.5452 12.5316 11.6227 12.4538 11.8152 12.4546C12.6022 12.4592 13.3892 12.4584 14.1761 12.455C14.3552 12.4542 14.4383 12.5265 14.4375 12.7048C14.4345 13.368 14.434 14.0308 14.4375 14.694C14.4388 14.8732 14.3565 14.9464 14.1779 14.9451C13.7844 14.9418 13.3909 14.9443 12.9974 14.9443H12.9982Z" fill="#F39D22"/>
<path d="M17.1235 12.4568C17.5097 12.4568 17.8963 12.4619 18.2824 12.4547C18.4835 12.4509 18.5662 12.5304 18.5644 12.7281C18.5588 13.377 18.558 14.0263 18.5644 14.6752C18.5666 14.8763 18.4775 14.9473 18.2803 14.9461C17.5006 14.9415 16.721 14.9419 15.9408 14.9461C15.7506 14.9469 15.6709 14.8737 15.6726 14.6845C15.6787 14.0284 15.6782 13.3724 15.6726 12.7163C15.6713 12.5279 15.7514 12.4522 15.9426 12.4551C16.3361 12.461 16.7296 12.4568 17.1231 12.4568H17.1235Z" fill="#F39D22"/>
</svg>
