<svg width="25" height="20" viewBox="0 0 25 20" fill="none" xmlns="http://www.w3.org/2000/svg">
<path d="M24.4619 6.11572V18.0421C23.9598 19.396 23.34 19.8718 22.0449 19.8718C15.4995 19.8737 8.95422 19.8744 2.40823 19.8718C0.900634 19.8711 0.00203098 19.0008 0.000677666 17.5468C-0.00202897 13.918 -0.000675651 10.2892 0.000677666 6.6604C0.000677666 6.5486 0.0108275 6.43681 0.0182708 6.28342C0.153603 6.35296 0.241568 6.39456 0.326827 6.44201C3.99499 8.47448 7.66587 10.5037 11.3279 12.5459C11.8266 12.8241 12.2699 12.8462 12.778 12.5628C16.0706 10.7247 19.3714 8.90086 22.6714 7.07573C23.2635 6.74815 23.8644 6.43551 24.4619 6.11572V6.11572Z" fill="#F39D22"/>
<path d="M24.4619 2.42103V3.65273C24.3029 3.72812 24.1385 3.79507 23.9855 3.87957C20.1042 6.02968 16.2222 8.17979 12.3457 10.3377C12.144 10.4502 12.0012 10.4534 11.8003 10.339C10.8732 9.80993 9.93607 9.2984 9.00228 8.78102C6.1028 7.17493 3.20332 5.57015 0.307217 3.96016C0.192185 3.89582 0.02505 3.78337 0.0223434 3.68978C0.0101636 3.22764 -0.0182561 2.75186 0.0771528 2.30468C0.291654 1.30307 1.17943 0.666749 2.28644 0.664799C5.26577 0.660249 8.2451 0.662849 11.2244 0.662849C14.8561 0.662849 18.4877 0.661549 22.1193 0.663499C23.2886 0.664149 24.0809 1.24198 24.401 2.31118C24.4125 2.35018 24.4409 2.38463 24.4619 2.42103V2.42103Z" fill="#F39D22"/>
</svg>
