<svg width="256" height="76" viewBox="0 0 256 76" fill="none" xmlns="http://www.w3.org/2000/svg">
<path d="M16.1456 62.3458L10.4033 71.1294H10.0187L4.23488 62.3458V75.6706H3.07812V60.6743H4.44797L10.1902 69.4136L15.8661 60.6743H17.2802V75.6706H16.1456V62.3458Z" fill="white"/>
<path d="M37.8892 68.1934C37.8671 72.1342 35.3626 75.9254 30.3288 75.9254C25.295 75.9254 22.7656 72.112 22.7656 68.1492C22.7656 64.1863 25.2729 60.4365 30.3288 60.4365C35.3848 60.4365 37.9114 64.142 37.8892 68.1907V68.1934ZM23.9002 68.1713C23.9224 71.5558 26.0643 74.8545 30.3261 74.8545C34.5878 74.8545 36.774 71.5558 36.774 68.1713C36.774 64.7868 34.6321 61.5103 30.3261 61.5103C26.02 61.5103 23.8781 64.6374 23.9002 68.1713Z" fill="white"/>
<path d="M55.218 60.6743L49.0495 75.7121H47.807L41.6385 60.6743H42.8811L48.4296 74.3838L53.9782 60.6743H55.2207H55.218Z" fill="white"/>
<path d="M60.0605 75.6682V60.6719H61.1952V75.6682H60.0605Z" fill="white"/>
<path d="M67.8371 60.6743L77.9269 73.0776V60.6743H79.0615V75.6706H78.6104L68.4985 63.2895V75.6706H67.3417V60.6743H67.8343H67.8371Z" fill="white"/>
<path d="M97.0361 63.4362C95.7299 62.1521 93.909 61.5073 92.2153 61.5073C87.8235 61.5073 85.5737 64.7202 85.5958 68.1905C85.5958 71.7244 87.8457 74.7657 92.2153 74.7657C93.8232 74.7657 95.4919 74.2095 96.7787 73.0306V68.8325H91.5512V67.8252H97.8691V73.4374C96.3055 75.001 94.4403 75.8589 92.2126 75.8589C87.1151 75.8589 84.4806 72.3028 84.4806 68.2126C84.4584 63.522 87.652 60.4585 92.2126 60.4585C94.1829 60.4585 96.1754 61.2085 97.6975 62.7084L97.0333 63.4362H97.0361Z" fill="white"/>
<path d="M122.206 64.2944C122.206 61.9366 120.363 61.5298 118.37 61.5298C115.501 61.5298 114.128 62.8581 114.15 64.549C114.172 66.8403 116.613 67.5488 118.412 67.5488H124.774V68.4703H123.404V71.7469C123.404 73.3547 123.769 74.7882 125.267 74.7688V75.6682C124.046 75.8398 123.08 75.0262 122.759 73.7615C121.666 75.5381 119.953 75.8619 118.345 75.8619C114.704 75.8619 112.797 74.2541 112.797 71.686C112.797 69.8208 114.319 68.5146 115.819 68.022C114.255 67.5515 113.054 66.2453 113.054 64.5739C113.054 62.2604 114.961 60.5889 118.387 60.5889C120.786 60.5889 123.208 61.2088 123.208 64.2944H122.2H122.206ZM122.463 68.4703H118.351C115.395 68.4703 113.896 70.1418 113.896 71.6832C113.896 73.6121 115.31 74.8546 118.329 74.8546C120.042 74.8546 122.463 74.2541 122.463 71.7496V68.4731V68.4703Z" fill="#F19C23" stroke="#F19C23" stroke-miterlimit="10"/>
<path d="M149.238 63.5662C148.145 61.809 146.388 61.5516 144.697 61.5322C142.94 61.5322 140.156 62.1743 140.156 64.5736C140.156 66.4803 142.212 66.9313 144.741 67.4018C147.633 67.958 150.633 68.4728 150.633 71.7078C150.611 75.0923 147.204 75.9059 144.7 75.9059C142.364 75.9059 139.708 74.9429 138.551 72.6487L139.58 72.134C140.502 73.9549 142.857 74.8543 144.7 74.8543C146.543 74.8543 149.476 74.3396 149.476 71.6829C149.498 69.433 147.013 68.9405 144.55 68.47C141.808 67.9331 139.002 67.3769 139.002 64.6151C138.938 61.4437 142.237 60.4585 144.7 60.4585C146.842 60.4585 148.707 60.8016 150.185 63.0072L149.241 63.5635L149.238 63.5662Z" fill="white"/>
<path d="M160.165 61.7233H154.746V60.6938H166.743V61.7233H161.324V75.668H160.167V61.7233H160.165Z" fill="white"/>
<path d="M186.236 68.1934C186.214 72.1342 183.709 75.9254 178.673 75.9254C173.636 75.9254 171.109 72.112 171.109 68.1492C171.109 64.1863 173.617 60.4365 178.673 60.4365C183.729 60.4365 186.255 64.142 186.236 68.1907V68.1934ZM172.247 68.1713C172.269 71.5558 174.411 74.8545 178.673 74.8545C182.934 74.8545 185.121 71.5558 185.121 68.1713C185.121 64.7868 182.979 61.5103 178.673 61.5103C174.367 61.5103 172.225 64.6374 172.247 68.1713Z" fill="white"/>
<path d="M203.78 75.6682H202.258L197.075 69.9923H192.985V75.6682H191.828V60.6719H198.426C201.683 60.6719 203.332 63.0075 203.351 65.3432C203.374 67.784 201.766 69.9287 198.489 69.9287L203.78 75.671V75.6682ZM192.985 68.8992H198.298C200.911 68.8992 202.067 67.4215 202.089 65.321C202.112 63.5638 200.911 61.7428 198.426 61.7428H192.985V68.8965V68.8992Z" fill="white"/>
<path d="M220.468 75.6682L218.819 71.9848H209.864L208.237 75.6682H206.994L213.722 60.6719H214.986L221.714 75.6682H220.471H220.468ZM218.368 70.9139L214.341 61.7871L210.315 70.9139H218.371H218.368Z" fill="white"/>
<path d="M237.584 63.4362C236.278 62.1521 234.457 61.5073 232.763 61.5073C228.372 61.5073 226.122 64.7202 226.144 68.1905C226.144 71.7244 228.394 74.7657 232.763 74.7657C234.371 74.7657 236.04 74.2095 237.327 73.0306V68.8325H232.099V67.8252H238.42V73.4374C236.856 75.001 234.991 75.8589 232.763 75.8589C227.666 75.8589 225.031 72.3028 225.031 68.2126C225.009 63.522 228.203 60.4585 232.763 60.4585C234.734 60.4585 236.726 61.2085 238.248 62.7084L237.584 63.4362Z" fill="white"/>
<path d="M245.508 67.593H254.292V68.6419H245.508V74.5529H254.976V75.6682H244.371V60.6719H254.718V61.765H245.506V67.593H245.508Z" fill="white"/>
<path d="M25.1732 50.128C39.0157 50.128 50.2372 38.9064 50.2372 25.064C50.2372 11.2215 39.0157 0 25.1732 0C11.3308 0 0.109253 11.2215 0.109253 25.064C0.109253 38.9064 11.3308 50.128 25.1732 50.128Z" fill="#F19C22"/>
<path d="M27.8269 49.7248C40.2643 48.2594 49.1588 36.9889 47.6934 24.5514C46.2279 12.114 34.9574 3.21946 22.52 4.68492C10.0825 6.15039 1.18799 17.4209 2.65346 29.8583C4.11892 42.2958 15.3894 51.1903 27.8269 49.7248Z" fill="white"/>
<path d="M40.1938 35.7101C40.2685 35.9868 40.1052 36.2691 39.8285 36.3438L33.4359 38.0762C33.1592 38.1509 32.8769 37.9876 32.8022 37.7109L31.8834 34.3181C31.8087 34.0414 31.972 33.7591 32.2487 33.6816L38.6413 31.9493C38.918 31.8745 39.2031 32.0378 39.275 32.3146L40.1938 35.7073V35.7101Z" fill="#F19C22"/>
<path d="M38.8129 30.9391C38.8876 31.2158 38.7243 31.5009 38.4503 31.5728L32.0577 33.3052C31.781 33.3799 31.496 33.2166 31.4212 32.9399L30.5025 29.5471C30.4278 29.2704 30.591 28.9881 30.8678 28.9106L37.2604 27.1783C37.5371 27.1035 37.8221 27.2668 37.8969 27.5436L38.8156 30.9363L38.8129 30.9391Z" fill="#F19C22"/>
<path d="M37.3715 26.2321C37.4462 26.5088 37.2829 26.7938 37.0062 26.8658L30.6163 28.5982C30.3396 28.6729 30.0546 28.5096 29.9798 28.2329L29.0611 24.8401C28.9864 24.5634 29.1496 24.2783 29.4264 24.2036L35.819 22.4712C36.0957 22.3965 36.378 22.5598 36.4555 22.8365L37.3742 26.2293L37.3715 26.2321Z" fill="#F19C22"/>
<path d="M22.8986 14.0557C22.8986 15.4616 21.7584 16.6017 20.3526 16.6017C18.9468 16.6017 17.8066 15.4616 17.8066 14.0557C17.8066 12.6499 18.9468 11.5098 20.3526 11.5098C21.7584 11.5098 22.8986 12.6499 22.8986 14.0557Z" fill="#F19C22"/>
<path d="M24.5468 12.5972H23.0746V12.4256C23.0746 11.3629 22.2139 10.4995 21.1485 10.4995H19.7288C18.6662 10.4995 17.8027 11.3602 17.8027 12.4256V13.3831H24.544C24.7626 13.3831 24.937 13.206 24.937 12.9901C24.937 12.7743 24.7599 12.5972 24.544 12.5972H24.5468Z" fill="#F19C22"/>
<path d="M25.8699 24.6378L23.4623 22.958L21.9873 19.6427C21.4338 18.7405 20.4265 18.1289 19.945 18.0238C19.7845 17.9601 19.6129 17.8993 19.4247 17.8522C17.9746 17.4759 16.4941 18.3476 16.1177 19.7977L13.9149 27.7898C13.8098 28.1911 13.8042 28.5951 13.879 28.977V34.3955L11.416 39.9191C11.0784 40.6802 11.416 41.5685 12.177 41.9089C12.3763 41.9974 12.5838 42.0417 12.7886 42.0417C13.3642 42.0417 13.9149 41.7096 14.164 41.1478L16.757 35.3309C16.8428 35.1371 16.8871 34.9296 16.8871 34.7165V31.1604C17.042 31.1411 17.1942 31.1051 17.3437 31.0581L19.3556 34.1049L19.9893 40.6774C20.064 41.4578 20.7199 42.0389 21.4864 42.0389C21.5362 42.0389 21.5833 42.0389 21.6331 42.0334C22.4605 41.9531 23.0666 41.217 22.9891 40.3896L22.3194 33.4435C22.2945 33.1972 22.2115 32.962 22.0759 32.7572L19.3196 28.584L20.7005 23.5751L21.0686 24.386C21.1599 24.5907 21.2982 24.7706 21.4726 24.909L24.1459 26.8019C24.4005 27.0039 24.7021 27.1007 25.0037 27.1007C25.4105 27.1007 25.8146 26.9209 26.0858 26.5777C26.559 25.9799 26.4594 25.111 25.8616 24.6378H25.8699Z" fill="#F19C22"/>
<path d="M31.8332 37.5698C31.8913 37.5698 31.9494 37.5726 32.0075 37.5781L28.5372 26.0272C28.4542 25.7477 28.2162 25.5429 27.9312 25.4986L25.4821 25.1222C25.0725 25.0586 24.6851 25.3409 24.6242 25.7532C24.5605 26.1655 24.8428 26.5502 25.2552 26.6111L27.2338 26.9155L30.5685 38.0126C30.9172 37.7359 31.3572 37.5698 31.8359 37.5698H31.8332Z" fill="#F19C22"/>
<path d="M42.4972 36.9335C42.3948 36.5295 41.9852 36.2859 41.5839 36.3856L33.4922 38.4196C33.7357 38.7544 33.8796 39.1668 33.8796 39.6123C33.8796 39.7036 33.8713 39.7922 33.8602 39.8807L41.952 37.8467C42.356 37.7443 42.5996 37.3348 42.4999 36.9335H42.4972Z" fill="#F19C22"/>
<path d="M31.8339 42.161C30.4281 42.161 29.2852 41.018 29.2852 39.6122C29.2852 38.2064 30.4281 37.0635 31.8339 37.0635C33.2397 37.0635 34.3826 38.2064 34.3826 39.6122C34.3826 41.018 33.2397 42.161 31.8339 42.161ZM31.8339 38.3116C31.1171 38.3116 30.5332 38.8955 30.5332 39.6122C30.5332 40.329 31.1171 40.9129 31.8339 40.9129C32.5506 40.9129 33.1346 40.329 33.1346 39.6122C33.1346 38.8955 32.5506 38.3116 31.8339 38.3116Z" fill="#F19C22"/>
<path d="M74.2171 10.5575L79.8985 23.5862H89.8416L79.3229 0.132812H69.1113L58.5898 23.5862H68.533L74.2171 10.5575Z" fill="white"/>
<path d="M83.4365 31.689H64.9976L67.408 26.1709H57.4317L46.8438 49.7737H56.9861L61.2396 40.4117H87.1946L91.3789 49.7737H101.59L91.0025 26.1709H81.0289L83.4365 31.689Z" fill="white"/>
<path d="M130.31 35.3779H132.156L139.06 26.1709H123.58L130.31 35.3779Z" fill="white"/>
<path d="M114.499 26.1709H105.137V49.8457H114.499V26.1709Z" fill="white"/>
<path d="M114.499 13.748L121.691 23.586H141.002L148.324 13.82V23.586H157.686V0.20459H146.976L131.446 21.5492L115.916 0.20459H105.137V23.586H114.499V13.748Z" fill="white"/>
<path d="M157.686 26.1709H148.324V49.8457H157.686V26.1709Z" fill="white"/>
<path d="M166.336 49.7737H203.496V40.5556H175.626V29.3506H202.503V26.1709H166.336V49.7737Z" fill="white"/>
<path d="M202.503 20.6279H175.626V9.20975H203.496V0.132812H166.336V23.5862H202.503V20.6279V20.6279Z" fill="white"/>
<path d="M238.935 26.1709H225.004L208.812 49.4887V49.7737H219.309L232.003 31.1217L244.697 49.7737H255.191V49.4887L238.935 26.1709Z" fill="white"/>
<path d="M254.693 0.558986V0.132812H244.41L232.001 18.6409L219.589 0.132812H209.309V0.558986L225.29 23.5862H238.643L254.693 0.558986Z" fill="white"/>
<path d="M255.382 53.7422H2.625V55.3583H255.382V53.7422Z" fill="#F19C22"/>
</svg>
